<?xml version="1.0" standalone="no"?>
<!DOCTYPE svg PUBLIC "-//W3C//DTD SVG 20010904//EN"
 "http://www.w3.org/TR/2001/REC-SVG-20010904/DTD/svg10.dtd">
<svg version="1.0" xmlns="http://www.w3.org/2000/svg"
 width="700.000000pt" height="700.000000pt" viewBox="0 0 700.000000 700.000000"
 preserveAspectRatio="xMidYMid meet">
<metadata>
Created by potrace 1.14, written by Peter Selinger 2001-2017
</metadata>
<g transform="translate(0.000000,700.000000) scale(0.100000,-0.100000)"
fill="#000000" stroke="none">
<path d="M0 3500 l0 -3500 3500 0 3500 0 0 3500 0 3500 -3500 0 -3500 0 0
-3500z m6648 6 c1 -1727 -1 -3143 -5 -3147 -5 -4 -1420 -5 -3145 -2 l-3138 6
0 3139 0 3138 2273 3 c1249 1 2664 2 3142 2 l870 0 3 -3139z"/>
<path d="M560 3500 l0 -2940 2940 0 2940 0 0 2940 0 2940 -2940 0 -2940 0 0
-2940z m5185 1368 c-7 -20 -205 -748 -205 -753 0 -3 -674 -5 -1497 -5 l-1498
0 -26 -115 c-14 -64 -23 -118 -20 -119 3 -2 553 -4 1221 -5 668 -1 1332 -5
1476 -9 l260 -7 -226 -865 -227 -865 -1869 4 c-1028 2 -1870 5 -1872 6 -3 3
196 726 201 732 2 2 674 6 1492 11 l1489 7 38 120 c20 65 36 120 35 121 -1 1
-678 6 -1503 11 l-1502 8 237 850 237 850 769 7 c424 5 1153 12 1620 16 1355
14 1375 14 1370 0z"/>
</g>
</svg>
