<?xml version="1.0" encoding="UTF-8"?>
<svg width="780" height="540" version="1.1" viewBox="0 0 206.38 142.88" xmlns="http://www.w3.org/2000/svg" xmlns:xlink="http://www.w3.org/1999/xlink"><defs><linearGradient id="linearGradient13427" x1="176.61" x2="88.867" y1="121.42" y2="120.67" gradientTransform="translate(-33.249 -64.305)" gradientUnits="userSpaceOnUse"><stop stop-color="#f8a150" offset="0"/><stop stop-color="#e15146" offset=".86137"/></linearGradient><linearGradient id="linearGradient36092" x1="-1.1225" x2="270.53" y1="135.83" y2="135.83" gradientTransform="matrix(.7597 0 0 .5245 .85279 .19626)" gradientUnits="userSpaceOnUse"><stop stop-color="#2c323b" offset="0"/><stop stop-color="#4c5054" offset="1"/></linearGradient></defs><g><rect width="206.38" height="142.88" display="none" fill="url(#linearGradient36092)"/><path d="m0 0h206.38l-0.34505 142.24-206.03 0.63349z" display="none" fill="#fff" stroke-width=".38612"/><path d="m0 71.437v-71.437h206.38v142.88h-206.38zm180.91 35.799 0.24136-71.864-152.93 1.4e-5v72.187z" display="none" fill="#f60" stroke-width=".23734"/><path d="m0 0h205.84l0.5347 142.88h-206.38z" display="none" fill="#008000" stroke-width=".41055"/><path d="m146.27 97.757 12.831-48.922-41.726-0.46772h-41.884l1.519-6.7352h84.384l5.893-21.572-106.12 0.84926-13.406 48.131 85.114 0.25519-2.2677 7.1316-84.23 0.19029-5.7816 20.921z" fill="url(#linearGradient13427)" stroke-width="1.4142"/></g><rect x="5.2919" y="5.2919" width="195.79" height="132.29" fill="none" stroke="#fff" stroke-width="5.292"/><text transform="matrix(.28663 0 0 .26458 -39.607 -81.579)" display="none" fill="#000000" font-family="'Franklin Gothic Demi'" font-size="64px" style="font-variant-caps:normal;font-variant-east-asian:normal;font-variant-ligatures:normal;font-variant-numeric:normal;shape-inside:url(#rect384);white-space:pre" xml:space="preserve"/><g transform="matrix(.28663 0 0 .26458 -39.609 -81.568)" fill="#fff" style="white-space:pre" aria-label="SYNTECHFUELS"><path d="m307.38 755.01q0 6.08-4.416 9.472t-11.904 3.392q-3.84 0-7.104-0.576t-5.44-1.6v-5.504q2.304 1.024 5.696 1.856 3.456 0.832 7.104 0.832 5.12 0 7.68-1.984 2.624-1.984 2.624-5.376 0-2.24-0.96-3.776t-3.328-2.816q-2.304-1.344-6.464-2.816-5.824-2.112-8.832-5.184-2.944-3.072-2.944-8.384 0-3.648 1.856-6.208 1.856-2.624 5.12-4.032 3.328-1.408 7.616-1.408 3.776 0 6.912 0.704t5.696 1.856l-1.792 4.928q-2.368-1.024-5.184-1.728-2.752-0.704-5.76-0.704-4.288 0-6.464 1.856-2.176 1.792-2.176 4.8 0 2.304 0.96 3.84t3.136 2.752 5.888 2.624q4.032 1.472 6.784 3.2 2.816 1.664 4.224 4.032 1.472 2.368 1.472 5.952z"/><path d="m328.5 744 11.904-22.464h6.208l-15.232 27.968v17.728h-5.76v-17.472l-15.232-28.224h6.272z"/><path d="m389.04 767.23h-6.72l-24.448-37.952h-0.256q0.128 2.24 0.32 5.568t0.192 6.848v25.536h-5.312v-45.696h6.656l24.384 37.824h0.256q-0.064-1.024-0.192-3.072-0.064-2.048-0.192-4.48-0.064-2.432-0.064-4.48v-25.792h5.376z"/><path d="m415.92 767.23h-5.76v-40.64h-14.272v-5.056h34.24v5.056h-14.208z"/><path d="m462.58 767.23h-25.536v-45.696h25.536v5.056h-19.776v14.272h18.624v4.992h-18.624v16.32h19.776z"/><path d="m492.21 725.95q-7.36 0-11.584 4.928t-4.224 13.504q0 8.512 3.904 13.504 3.968 4.928 11.84 4.928 3.008 0 5.696-0.512t5.248-1.28v4.992q-2.56 0.96-5.312 1.408-2.688 0.448-6.464 0.448-6.976 0-11.648-2.88t-7.04-8.192q-2.304-5.312-2.304-12.48 0-6.912 2.496-12.16 2.56-5.312 7.488-8.256 4.928-3.008 11.968-3.008 7.232 0 12.608 2.688l-2.304 4.864q-2.112-0.96-4.736-1.728-2.56-0.768-5.632-0.768z"/><path d="m548.02 767.23h-5.76v-21.312h-23.424v21.312h-5.76v-45.696h5.76v19.328h23.424v-19.328h5.76z"/><path d="m566.26 767.23h-5.76v-45.696h25.536v5.056h-19.776v16.192h18.56v5.056h-18.56z"/><path d="m628.47 751.1q0 4.736-1.92 8.576-1.92 3.776-5.888 6.016-3.904 2.176-9.984 2.176-8.512 0-12.992-4.608-4.416-4.672-4.416-12.288v-29.44h5.76v29.632q0 5.568 2.944 8.64 3.008 3.072 9.024 3.072 6.208 0 8.96-3.264 2.816-3.328 2.816-8.512v-29.568h5.696z"/><path d="m666.03 767.23h-25.536v-45.696h25.536v5.056h-19.776v14.272h18.624v4.992h-18.624v16.32h19.776z"/><path d="m676.08 767.23v-45.696h5.76v40.576h19.968v5.12z"/><path d="m735.54 755.01q0 6.08-4.416 9.472t-11.904 3.392q-3.84 0-7.104-0.576t-5.44-1.6v-5.504q2.304 1.024 5.696 1.856 3.456 0.832 7.104 0.832 5.12 0 7.68-1.984 2.624-1.984 2.624-5.376 0-2.24-0.96-3.776t-3.328-2.816q-2.304-1.344-6.464-2.816-5.824-2.112-8.832-5.184-2.944-3.072-2.944-8.384 0-3.648 1.856-6.208 1.856-2.624 5.12-4.032 3.328-1.408 7.616-1.408 3.776 0 6.912 0.704t5.696 1.856l-1.792 4.928q-2.368-1.024-5.184-1.728-2.752-0.704-5.76-0.704-4.288 0-6.464 1.856-2.176 1.792-2.176 4.8 0 2.304 0.96 3.84t3.136 2.752 5.888 2.624q4.032 1.472 6.784 3.2 2.816 1.664 4.224 4.032 1.472 2.368 1.472 5.952z"/></g></svg>
